<svg width="453" height="388" viewBox="0 0 453 388" fill="none" xmlns="http://www.w3.org/2000/svg">
<path d="M439.308 82.6861C415.084 28.7759 372.652 1.58518 314.475 0.554114C254.244 -0.535873 235.037 0.318436 174.773 0.318436H0L82.3427 113C152.193 113 215.505 113 284.446 113V60.5917L368.02 144.521L284.446 228.45V176.16H204.274C175.096 216.519 147.942 254.02 120.083 292.435C142.927 323.75 166.738 356.361 189.875 388C205.535 366.465 218.086 348.554 240.811 317.298C252.954 300.536 258.114 293.437 261.339 289.135C284.297 289.135 302.394 289.135 307.64 288.988C328.236 288.717 348.553 284.162 367.307 275.608C386.067 267.055 402.855 254.688 416.61 239.29C434.297 219.699 446.136 195.504 450.775 169.473C455.991 140.049 451.984 109.725 439.308 82.6861Z" fill="#B71923"/>
</svg>
