<svg width="930" height="360" viewBox="0 0 930 360" fill="none" xmlns="http://www.w3.org/2000/svg">
<g opacity="0.1" clip-path="url(#clip0_76_914)">
<path d="M920.188 91.6393C893.354 31.8918 846.35 1.75683 781.902 0.614113C715.181 -0.593898 693.904 0.352916 627.146 0.352916H433.538L524.755 125.235C602.133 125.235 672.267 125.235 748.638 125.235V67.1526L841.218 160.17L748.638 253.187V195.234H659.826C627.503 239.963 597.423 281.526 566.562 324.1C591.868 358.806 618.245 394.948 643.876 430.013C661.222 406.146 675.126 386.296 700.3 351.655C713.752 333.078 719.468 325.21 723.04 320.443C748.473 320.443 768.519 320.443 774.331 320.28C797.147 319.98 819.653 314.931 840.428 305.451C861.209 295.971 879.806 282.266 895.044 265.201C914.637 243.488 927.752 216.673 932.891 187.823C938.669 155.214 934.231 121.606 920.188 91.6393Z" fill="#1D3A44"/>
</g>
<defs>
<clipPath id="clip0_76_914">
<rect width="1374" height="725" fill="white"/>
</clipPath>
</defs>
</svg>
