<svg width="782" height="588" viewBox="0 0 782 588" fill="none" xmlns="http://www.w3.org/2000/svg">
<path opacity="0.04" d="M758.364 125.142C716.547 43.5511 643.299 2.39911 542.868 0.838627C438.893 -0.811021 405.738 0.481938 301.705 0.481938H0L142.146 171.02C262.727 171.02 372.02 171.02 491.03 171.02V91.7029L635.301 218.726L491.03 345.749V266.61H352.632C302.262 327.691 255.387 384.449 207.296 442.588C246.73 489.982 287.835 539.337 327.776 587.221C354.808 554.63 376.475 527.522 415.705 480.217C436.667 454.848 445.574 444.104 451.141 437.594C490.774 437.594 522.013 437.594 531.07 437.371C566.624 436.961 601.696 430.067 634.07 417.121C666.455 404.175 695.436 385.46 719.181 362.156C749.714 332.505 770.151 295.887 778.159 256.49C787.163 211.958 780.247 166.064 758.364 125.142Z" fill="white"/>
</svg>
