<svg width="46" height="34" viewBox="0 0 46 34" fill="none" xmlns="http://www.w3.org/2000/svg">
<path fill-rule="evenodd" clip-rule="evenodd" d="M9.94724 28.6316H1.52619V15.1579L3.2104 11.7895H0.684082V8.42105H4.89461L10.7893 0H35.2104L41.1051 8.42105H45.3157V11.7895H42.7893L44.4736 15.1579V28.6316H36.0525H9.94724ZM17.5262 22.7369H28.4736L29.3157 21.0526H16.6841L17.5262 22.7369ZM30.1578 20.2105H15.842L14.9999 18.5263H30.9999L30.1578 20.2105ZM8.26305 9.26317H37.7367L33.5262 3.36843H12.4736L8.26305 9.26317ZM9.10515 18.5263H4.05252V22.7369H12.4736L9.10515 18.5263ZM36.8946 18.5263L33.5262 22.7369H41.9473V18.5263H36.8946Z" fill="#B71923"/>
<path d="M1.5 34V29.5H10V34H1.5Z" fill="#1D3A44"/>
<path d="M36 34V29.5H44.5V34H36Z" fill="#1D3A44"/>
</svg>
