<svg width="30" height="30" viewBox="0 0 30 30" fill="none" xmlns="http://www.w3.org/2000/svg">
<path fill-rule="evenodd" clip-rule="evenodd" d="M13.9999 0.0327148C6.5124 0.525546 0.525544 6.5124 0.0327148 13.9999H3.99991C4.55219 13.9999 4.99991 14.4476 4.99991 14.9999C4.99991 15.5522 4.55219 15.9999 3.99991 15.9999H0.0327148C0.525544 23.4874 6.5124 29.4743 13.9999 29.9671V25.9999C13.9999 25.4476 14.4476 24.9999 14.9999 24.9999C15.5522 24.9999 15.9999 25.4476 15.9999 25.9999V29.9671C23.4874 29.4743 29.4743 23.4874 29.9671 15.9999H25.9999C25.4476 15.9999 24.9999 15.5522 24.9999 14.9999C24.9999 14.4476 25.4476 13.9999 25.9999 13.9999H29.9671C29.4743 6.5124 23.4874 0.525546 15.9999 0.0327148V3.99991C15.9999 4.5522 15.5522 4.99991 14.9999 4.99991C14.4476 4.99991 13.9999 4.5522 13.9999 3.99991V0.0327148ZM15.9999 9.99991C15.9999 9.44763 15.5522 8.99991 14.9999 8.99991C14.4476 8.99991 13.9999 9.44763 13.9999 9.99991V14.9999V15.4141L14.2928 15.707L18.2928 19.707C18.6833 20.0975 19.3165 20.0975 19.707 19.707C20.0975 19.3165 20.0975 18.6833 19.707 18.2928L15.9999 14.5857V9.99991Z" fill="#B71923"/>
</svg>
