<svg width="49" height="46" viewBox="0 0 49 46" fill="none" xmlns="http://www.w3.org/2000/svg">
<path fill-rule="evenodd" clip-rule="evenodd" d="M5.34584 45.9959C-1.78392 45.9959 -1.78388 34.4133 5.34584 34.4133H31.1838C38.3116 34.4133 38.3116 45.9959 31.1838 45.9959H5.34584ZM9.79876 40.2046C9.79876 41.4347 8.80151 42.432 7.57135 42.432C6.34118 42.432 5.34393 41.4347 5.34393 40.2046C5.34393 38.9744 6.34118 37.9772 7.57135 37.9772C8.80151 37.9772 9.79876 38.9744 9.79876 40.2046ZM14.699 42.432C15.9292 42.432 16.9264 41.4347 16.9264 40.2046C16.9264 38.9744 15.9292 37.9772 14.699 37.9772C13.4688 37.9772 12.4716 38.9744 12.4716 40.2046C12.4716 41.4347 13.4688 42.432 14.699 42.432ZM24.0541 40.2046C24.0541 41.4347 23.0569 42.432 21.8267 42.432C20.5966 42.432 19.5993 41.4347 19.5993 40.2046C19.5993 38.9744 20.5966 37.9772 21.8267 37.9772C23.0569 37.9772 24.0541 38.9744 24.0541 40.2046ZM28.9545 42.432C30.1846 42.432 31.1819 41.4347 31.1819 40.2046C31.1819 38.9744 30.1846 37.9772 28.9545 37.9772C27.7243 37.9772 26.727 38.9744 26.727 40.2046C26.727 41.4347 27.7243 42.432 28.9545 42.432Z" fill="#B71923"/>
<path fill-rule="evenodd" clip-rule="evenodd" d="M5.67139 32.6316H30.8552C32.512 32.6316 33.8552 31.2884 33.8552 29.6316V24.4301C33.8552 23.9644 33.7467 23.505 33.5385 23.0885L29.4003 14.8123H18.7088L15.1449 22.8309H5.67139C4.01453 22.8309 2.67139 24.1741 2.67139 25.8309V29.6316C2.67139 31.2884 4.01453 32.6316 5.67139 32.6316ZM20.4907 17.4851H23.1636V23.7219H18.7087V21.9399L20.4907 17.4851ZM27.6184 17.4851H24.9455V29.9586H31.1822V25.5038L27.6184 17.4851ZM12.472 25.5038H14.2539V29.9586H12.472V25.5038ZM10.69 25.5038H8.90812V29.9586H10.69V25.5038ZM5.34426 25.5038H7.12619V29.9586H5.34426V25.5038Z" fill="#1D3A44"/>
<path d="M38.3099 5.90265L37.4189 1.45142L26.2813 5.90265C21.3811 8.13007 20.0451 10.3575 19.5996 13.0304H29.4002C30.2912 9.912 35.1915 7.2391 38.3099 5.90265Z" fill="#B71923"/>
<path d="M49.0016 20.158H45.4378V21.9399L38.3101 29.9586V31.7405H46.3287C49.0016 31.2986 49.0016 28.1802 49.0016 27.2857V20.158Z" fill="#B71923"/>
<path fill-rule="evenodd" clip-rule="evenodd" d="M45.4376 19.2707H49.0014L46.3286 3.23332C45.4626 -1.93743 38.3603 -0.586571 40.0916 5.01511L45.4376 19.2707ZM43.0496 5.04564C43.7877 5.04564 44.3861 4.4473 44.3861 3.7092C44.3861 2.9711 43.7877 2.37275 43.0496 2.37275C42.3115 2.37275 41.7132 2.9711 41.7132 3.7092C41.7132 4.4473 42.3115 5.04564 43.0496 5.04564Z" fill="#1D3A44"/>
</svg>
