<svg width="62" height="40" viewBox="0 0 62 40" fill="none" xmlns="http://www.w3.org/2000/svg">
<g filter="url(#filter0_d_76_1021)">
<path d="M10.0853 6.12207H4.5C4.22386 6.12207 4 6.34593 4 6.62207V20.7684C4 21.0445 4.22386 21.2684 4.5 21.2684H10.0853C10.3615 21.2684 10.5853 21.0445 10.5853 20.7684V6.62207C10.5853 6.34593 10.3615 6.12207 10.0853 6.12207Z" fill="#B71923"/>
<path d="M57.4999 6.12207H51.9146C51.6384 6.12207 51.4146 6.34593 51.4146 6.62207V20.7684C51.4146 21.0445 51.6384 21.2684 51.9146 21.2684H57.4999C57.776 21.2684 57.9999 21.0445 57.9999 20.7684V6.62207C57.9999 6.34593 57.776 6.12207 57.4999 6.12207Z" fill="#B71923"/>
<path d="M18.4031 4.1782L13.5442 6.0003C13.349 6.07348 13.2197 6.26004 13.2197 6.46847V21.6665C13.2197 21.8296 13.2993 21.9825 13.433 22.0761L26.2036 31.0155C26.3223 31.0986 26.4711 31.1261 26.6116 31.091L29.3225 30.4133C29.731 30.3111 29.838 29.7808 29.5012 29.5282L23.8248 25.2709C23.7794 25.2368 23.7391 25.1954 23.711 25.1462C23.1666 24.1906 24.4303 23.2886 25.7061 24.5354C25.723 24.5519 25.7414 24.5681 25.7603 24.5823L32.1268 29.3571C32.2473 29.4475 32.402 29.4787 32.5481 29.4422L35.2719 28.7613C35.6764 28.6601 35.7867 28.1375 35.4576 27.8815L30.3416 23.9024C29.3538 22.9146 30.3416 21.5975 31.6587 22.5853L38.0507 27.6989C38.1725 27.7964 38.3329 27.8314 38.4843 27.7935L41.24 27.1046C41.6369 27.0054 41.7531 26.4974 41.4388 26.2354L36.2684 21.9268C34.9514 20.939 36.5977 19.6219 37.5855 20.6097L43.9751 26.0408C44.0979 26.1453 44.2637 26.1841 44.4201 26.1449L47.1363 25.4659C47.5389 25.3653 47.6508 24.8464 47.3254 24.5888L32.6292 12.9543C32.4466 12.8097 32.1884 12.8104 32.0065 12.9559L25.7319 17.9756C20.1508 21.9152 14.897 15.7074 17.8036 11.428C17.8204 11.4032 17.8401 11.3796 17.8613 11.3584L24.2198 4.99992C24.5348 4.68493 24.3117 4.14636 23.8662 4.14636H18.5787C18.5187 4.14636 18.4592 4.15715 18.4031 4.1782Z" fill="#1D3A44"/>
<path d="M48.7809 6.34657V20.8933C48.7809 21.3114 48.2983 21.5448 47.9705 21.2853L33.282 9.6569C33.1021 9.51455 32.8485 9.51278 32.6668 9.65261L24.4151 16.0001C22.1099 17.6464 19.4758 14.683 21.1221 12.7074L31.5095 1.02158C31.6044 0.914834 31.7404 0.85376 31.8832 0.85376H42.6639C42.7864 0.85376 42.9046 0.898699 42.9961 0.980055L48.613 5.97286C48.7198 6.06775 48.7809 6.20375 48.7809 6.34657Z" fill="#1D3A44"/>
</g>
<defs>
<filter id="filter0_d_76_1021" x="0" y="0.85376" width="62" height="38.2522" filterUnits="userSpaceOnUse" color-interpolation-filters="sRGB">
<feFlood flood-opacity="0" result="BackgroundImageFix"/>
<feColorMatrix in="SourceAlpha" type="matrix" values="0 0 0 0 0 0 0 0 0 0 0 0 0 0 0 0 0 0 127 0" result="hardAlpha"/>
<feOffset dy="4"/>
<feGaussianBlur stdDeviation="2"/>
<feComposite in2="hardAlpha" operator="out"/>
<feColorMatrix type="matrix" values="0 0 0 0 0 0 0 0 0 0 0 0 0 0 0 0 0 0 0.25 0"/>
<feBlend mode="normal" in2="BackgroundImageFix" result="effect1_dropShadow_76_1021"/>
<feBlend mode="normal" in="SourceGraphic" in2="effect1_dropShadow_76_1021" result="shape"/>
</filter>
</defs>
</svg>
