<svg width="178" height="94" viewBox="0 0 178 94" fill="none" xmlns="http://www.w3.org/2000/svg">
<g clip-path="url(#clip0_90_30)">
<path d="M18.4704 86.2699H20.907L19.5267 93.1237H15.8401L16.5514 89.5382H4.40192L3.70333 93.1237H0L1.37613 86.2699H1.89375C2.95986 86.2388 3.88149 85.4473 4.65863 83.8952C5.60663 81.8481 6.32099 79.6994 6.78805 77.4905L8.05055 72.2202H21.2816L18.4704 86.2699ZM8.70705 83.2644C8.35595 84.3714 7.78305 85.3943 7.02371 86.2699H14.5272L16.665 75.484H10.7734L10.1589 78.1635C9.76722 79.889 9.28252 81.5918 8.70705 83.2644Z" fill="white"/>
<path d="M38.1864 73.6424C38.7683 74.1193 39.2303 74.7272 39.5352 75.417C39.84 76.1068 39.9791 76.8592 39.9413 77.6131C39.974 78.9552 39.6204 80.2783 38.9229 81.4229C38.22 82.5214 37.2097 83.3859 36.0192 83.9077C34.6173 84.5092 33.1027 84.798 31.5793 84.7544H27.7414L26.8071 89.5291H22.8008L26.2431 72.2371H33.2037C35.35 72.2371 37.0109 72.7055 38.1864 73.6424ZM34.8198 80.5805C35.1859 80.2549 35.4736 79.8498 35.661 79.3958C35.8484 78.9419 35.9305 78.4509 35.9013 77.9602C35.9232 77.6047 35.858 77.2494 35.7111 76.9253C35.5644 76.6013 35.3406 76.3185 35.0596 76.1019C34.3544 75.646 33.5226 75.4294 32.6861 75.4838H29.5635L28.3557 81.4948H31.7224C33.0817 81.4948 34.1043 81.1901 34.845 80.5805H34.8198Z" fill="white"/>
<path d="M52.3644 85.8253H44.3685L42.1297 89.5381H37.854L48.9935 72.2371H52.9409L57.1492 89.5381H53.164L52.3644 85.8253ZM51.6995 82.7817L50.2476 76.1019L46.2075 82.7817H51.6995Z" fill="white"/>
<path d="M62.9145 72.2371H66.8494L64.5642 83.5183L75.0177 72.2371H78.8052L75.3586 89.5552H71.4238L73.7384 78.2989L63.2597 89.5552H59.4722L62.9145 72.2371ZM67.8972 70.3915C67.5409 70.1268 67.256 69.7767 67.0686 69.373C66.8812 68.9693 66.7971 68.5249 66.8241 68.0802C66.8185 67.8393 66.8354 67.5983 66.8746 67.3606H69.3996C69.3804 67.4752 69.3719 67.5915 69.3743 67.7077C69.3637 67.9198 69.4014 68.1315 69.4845 68.3266C69.5677 68.5217 69.6941 68.6952 69.8541 68.8337C70.2525 69.1359 70.7446 69.286 71.2429 69.257C71.8106 69.2803 72.3696 69.1102 72.8294 68.7744C73.2635 68.4286 73.5497 67.9288 73.629 67.3775H76.2129C76.1502 67.939 75.9765 68.4822 75.7019 68.9752C75.4272 69.4681 75.0572 69.9007 74.6137 70.2476C73.7721 70.874 72.5839 71.1873 71.0493 71.1873C69.6577 71.1647 68.607 70.8938 67.8972 70.3745V70.3915Z" fill="white"/>
<path d="M95.7141 81.9309C96.1288 82.5639 96.3397 83.3106 96.3157 84.0685C96.3566 84.8759 96.1831 85.6798 95.8137 86.3976C95.4435 87.1154 94.8908 87.7215 94.2117 88.1535C92.8091 89.0763 90.9321 89.5381 88.581 89.5381H79.5415L82.9839 72.2371H91.2997C93.1509 72.2371 94.5775 72.5785 95.5797 73.2615C96.0603 73.5785 96.4501 74.0154 96.7126 74.5295C96.9752 75.0436 97.1016 75.6175 97.0775 76.195C97.0989 77.1663 96.8034 78.1181 96.2356 78.9042C95.6598 79.6754 94.8819 80.2705 93.9883 80.6228C94.6817 80.8743 95.2833 81.3302 95.7141 81.9309ZM91.4216 85.8761C91.7224 85.674 91.9671 85.3972 92.1309 85.0724C92.2947 84.7476 92.3721 84.3858 92.3561 84.022C92.3561 82.8325 91.5141 82.2398 89.7715 82.2398H84.9534L84.1117 86.5195H88.8083C89.7235 86.5723 90.6339 86.3483 91.4216 85.8761ZM86.3295 75.2383L85.5173 79.319H89.5784C90.439 79.3699 91.2934 79.1494 92.0232 78.6883C92.3089 78.4824 92.5385 78.208 92.6907 77.8901C92.8438 77.5721 92.915 77.2208 92.899 76.868C92.899 75.7816 92.057 75.2383 90.3741 75.2383H86.3295Z" fill="white"/>
<path d="M112.526 81.9731C112.971 82.6111 113.203 83.3744 113.187 84.1532C113.193 85.2763 112.766 86.3578 111.997 87.1714C111.119 88.0977 110.03 88.7939 108.823 89.199C107.453 89.6849 106.009 89.9275 104.556 89.9141C103.372 89.9141 102.193 89.7565 101.051 89.4446C99.9256 89.1454 98.8576 88.6605 97.8901 88.0095L99.712 85.1395C100.41 85.6305 101.188 85.9958 102.01 86.219C102.855 86.4539 103.729 86.5735 104.606 86.5746C105.737 86.6102 106.858 86.3552 107.863 85.8337C108.756 85.3385 109.206 84.6697 109.206 83.8315C109.206 82.7026 108.353 82.1383 106.648 82.1383H102.393L102.982 79.1201H106.967C107.712 79.1562 108.449 78.9531 109.071 78.5401C109.319 78.3774 109.522 78.155 109.661 77.8932C109.801 77.6315 109.873 77.3386 109.871 77.0416C109.878 76.7471 109.804 76.4563 109.655 76.2026C109.506 75.9488 109.289 75.7423 109.029 75.6065C108.326 75.245 107.541 75.0742 106.753 75.1113C105.961 75.122 105.173 75.2257 104.404 75.4203C103.541 75.6348 102.704 75.9457 101.908 76.3473L101.319 73.2318C103.211 72.3333 105.275 71.8609 107.367 71.8475C108.511 71.835 109.651 72.0182 110.734 72.3894C111.652 72.6962 112.478 73.2338 113.132 73.9514C113.713 74.6031 114.029 75.4509 114.016 76.3262C114.019 77.2427 113.702 78.131 113.12 78.8365C112.483 79.6151 111.644 80.2013 110.695 80.5296C111.429 80.8283 112.063 81.3285 112.526 81.9731Z" fill="white"/>
<path d="M127.896 85.8253H119.879L117.639 89.5381H113.385L124.529 72.2371H128.464L132.693 89.5551H128.691L127.896 85.8253ZM127.235 82.7817L125.783 76.1019L121.722 82.7817H127.235Z" fill="white"/>
<path d="M138.45 72.2372H142.385L140.096 83.5184L150.549 72.2372H154.337L150.894 89.5552H146.96L149.27 78.299L138.791 89.5382H135.003L138.45 72.2372ZM143.42 70.3746C143.065 70.1092 142.781 69.7588 142.595 69.3553C142.408 68.9517 142.325 68.5077 142.351 68.0633C142.346 67.8224 142.363 67.5814 142.402 67.3438H144.927C144.908 67.4583 144.899 67.5745 144.902 67.6908C144.891 67.9029 144.929 68.1146 145.012 68.3097C145.095 68.5049 145.222 68.6784 145.382 68.8169C145.78 69.1191 146.272 69.2691 146.77 69.2401C147.338 69.2634 147.897 69.0934 148.357 68.7576C148.79 68.4107 149.075 67.9113 149.156 67.3607H151.741C151.678 67.9222 151.504 68.4654 151.229 68.9583C150.955 69.4512 150.585 69.8839 150.141 70.2307C149.299 70.8572 148.1 71.1705 146.573 71.1705C145.192 71.1592 144.142 70.8939 143.42 70.3746Z" fill="white"/>
<path d="M178 72.2371L174.562 89.5381H170.85L172.891 79.2216L166.301 87.6879H164.504L160.96 79.0778L158.894 89.5208H155.204L158.642 72.2371H161.89L166.192 83.023L174.562 72.2371H178Z" fill="white"/>
<path d="M119.209 11.8815C115.733 4.13493 109.644 0.227782 101.295 0.079623C92.651 -0.0770019 89.8947 0.0457573 81.2462 0.0457573H56.1646L67.9815 16.2374C78.0058 16.2374 87.0916 16.2374 96.9853 16.2374V8.70668L108.979 20.7668L96.9853 32.8269V25.3131H85.4798C81.2925 31.1125 77.3956 36.5013 73.3976 42.0212C76.6759 46.521 80.0931 51.2071 83.4135 55.7534C85.6608 52.659 87.4619 50.0853 90.7232 45.5939C92.4659 43.1853 93.2064 42.1652 93.6692 41.5471C96.9639 41.5471 99.5609 41.5471 100.314 41.526C103.27 41.487 106.185 40.8324 108.877 39.6033C111.569 38.3742 113.978 36.5972 115.952 34.3847C118.49 31.5695 120.189 28.0928 120.855 24.3523C121.604 20.1242 121.029 15.7668 119.209 11.8815Z" fill="white"/>
</g>
<defs>
<clipPath id="clip0_90_30">
<rect width="178" height="94" fill="white"/>
</clipPath>
</defs>
</svg>
