<svg width="38" height="40" viewBox="0 0 38 40" fill="none" xmlns="http://www.w3.org/2000/svg">
<path d="M28.6662 7.99988H5.99951C7.99951 13.3332 13.3328 34.9999 8.66618 39.9999H31.3328C35.8662 33.0665 31.444 15.7777 28.6662 7.99988Z" fill="#1D3A44"/>
<path fill-rule="evenodd" clip-rule="evenodd" d="M27.9998 25.3334H25.9998V27.3334H24.6665V25.3334H23.3332V27.3334H21.3332V25.3334H14.6665V19.3334C15.9998 14.6667 21.9998 14.6667 23.3332 19.3334V23.3334H24.6665V21.3334H25.9998V23.3334H27.9998V25.3334ZM17.3332 23.3333L20.6666 23.3333V19.9999C19.9998 18 17.9998 18 17.3332 19.9999V23.3333Z" fill="white"/>
<path d="M0 19.3333H3.33333V3.33333H34.6667V19.3333H38V0H0V19.3333Z" fill="#B71923"/>
</svg>
