<svg width="50" height="50" viewBox="0 0 50 50" fill="none" xmlns="http://www.w3.org/2000/svg">
<path d="M40.3605 34.8283C39.7354 36.5837 37.2548 38.0396 35.2762 38.4647C33.9225 38.7514 32.1543 38.98 26.2021 36.5257C18.5886 33.3886 13.6857 25.6939 13.3035 25.1947C12.9376 24.6955 10.2271 21.1203 10.2271 17.4227C10.2271 13.7252 12.115 11.9247 12.8761 11.1517C13.5011 10.5172 14.5341 10.2273 15.5251 10.2273C15.8457 10.2273 16.1339 10.2434 16.393 10.2563C17.154 10.2885 17.5361 10.3336 18.0381 11.5285C18.6631 13.0262 20.1852 16.7238 20.3665 17.1039C20.5511 17.4839 20.7357 17.9993 20.4766 18.4985C20.2337 19.0138 20.02 19.2425 19.6379 19.6806C19.2557 20.1186 18.893 20.4536 18.5109 20.9238C18.1612 21.3329 17.7661 21.7709 18.2065 22.5278C18.6469 23.2686 20.169 25.739 22.4099 27.7231C25.3018 30.2837 27.6465 31.1018 28.4852 31.4496C29.1102 31.7073 29.8551 31.6461 30.3117 31.163C30.8913 30.5414 31.607 29.5107 32.3357 28.4961C32.8538 27.7682 33.508 27.678 34.1945 27.9357C34.894 28.1772 38.5955 29.997 39.3565 30.3739C40.1176 30.7539 40.6195 30.9343 40.8041 31.2532C40.9855 31.572 40.9855 33.0697 40.3605 34.8283Z" fill="#B71923"/>
</svg>
