<svg width="38" height="38" viewBox="0 0 38 38" fill="none" xmlns="http://www.w3.org/2000/svg">
<path fill-rule="evenodd" clip-rule="evenodd" d="M28.9833 38C33.9632 38 38.0002 33.9629 38.0002 28.983C38.0002 24.0031 33.9632 19.9661 28.9833 19.9661C24.0033 19.9661 19.9663 24.0031 19.9663 28.983C19.9663 33.9629 24.0033 38 28.9833 38ZM28.983 32.2035C30.7615 32.2035 32.2033 30.7617 32.2033 28.9831C32.2033 27.2046 30.7615 25.7628 28.983 25.7628C27.2044 25.7628 25.7626 27.2046 25.7626 28.9831C25.7626 30.7617 27.2044 32.2035 28.983 32.2035Z" fill="#1D3A44"/>
<path fill-rule="evenodd" clip-rule="evenodd" d="M9.01695 18.0339C13.9969 18.0339 18.0339 13.9969 18.0339 9.01695C18.0339 4.03703 13.9969 0 9.01695 0C4.03703 0 0 4.03703 0 9.01695C0 13.9969 4.03703 18.0339 9.01695 18.0339ZM9.01704 12.2374C10.7956 12.2374 12.2374 10.7956 12.2374 9.01704C12.2374 7.2385 10.7956 5.7967 9.01704 5.7967C7.2385 5.7967 5.7967 7.2385 5.7967 9.01704C5.7967 10.7956 7.2385 12.2374 9.01704 12.2374Z" fill="#1D3A44"/>
<path d="M4.93148 36.8114L1.28809 33.168L33.1678 1.28824L36.8112 4.93164L4.93148 36.8114Z" fill="#B71923"/>
</svg>
