<svg width="52" height="30" viewBox="0 0 52 30" fill="none" xmlns="http://www.w3.org/2000/svg">
<path d="M35.2695 20.2969H0.839844V0.875H35.2695V20.2969Z" fill="#B71923"/>
<path fill-rule="evenodd" clip-rule="evenodd" d="M37.0352 22.0625V6.17188H46.7461L51.1602 14.1172V24.7109H44.9805V26.4766C44.9805 30.0078 37.918 30.0078 37.918 26.4766V24.7109H27.3242V26.4766C27.3242 30.0078 20.2617 30.0078 20.2617 26.4766V24.7109H15.8477V26.4766C15.8477 30.0078 8.78516 30.0078 8.78516 26.4766V24.7109H5.25391V22.0625H37.0352ZM45.8633 8.82031H38.8008V14.1172H48.5117L45.8633 8.82031ZM12.3164 27.3594C13.2915 27.3594 14.082 26.5689 14.082 25.5938C14.082 24.6186 13.2915 23.8281 12.3164 23.8281C11.3413 23.8281 10.5508 24.6186 10.5508 25.5938C10.5508 26.5689 11.3413 27.3594 12.3164 27.3594ZM25.5586 25.5938C25.5586 26.5689 24.7681 27.3594 23.793 27.3594C22.8178 27.3594 22.0273 26.5689 22.0273 25.5938C22.0273 24.6186 22.8178 23.8281 23.793 23.8281C24.7681 23.8281 25.5586 24.6186 25.5586 25.5938ZM41.4492 27.3594C42.4243 27.3594 43.2148 26.5689 43.2148 25.5938C43.2148 24.6186 42.4243 23.8281 41.4492 23.8281C40.4741 23.8281 39.6836 24.6186 39.6836 25.5938C39.6836 26.5689 40.4741 27.3594 41.4492 27.3594Z" fill="#1D3A44"/>
</svg>
