<svg width="44" height="45" viewBox="0 0 44 45" fill="none" xmlns="http://www.w3.org/2000/svg">
<path fill-rule="evenodd" clip-rule="evenodd" d="M22.8718 9.62451H22.8782C29.9772 9.62451 35.75 15.4006 35.75 22.4995C35.75 29.5985 29.9772 35.3745 22.8782 35.3745C20.2598 35.3745 17.8312 34.5956 15.7954 33.2469L10.8465 34.8289L12.4511 30.0459C10.9077 27.9263 10 25.3159 10 22.4995C10 15.3989 15.7728 9.62451 22.8718 9.62451ZM27.8445 29.6222C28.8278 29.4098 30.0606 28.6824 30.3712 27.8053C30.6818 26.9265 30.6818 26.1782 30.5917 26.0189C30.5189 25.8924 30.3468 25.8096 30.0899 25.6859C30.0231 25.6537 29.9504 25.6187 29.8723 25.5795C29.4941 25.3912 27.6546 24.4819 27.307 24.3612C26.9658 24.2325 26.6407 24.2775 26.3832 24.6412C26.3342 24.7098 26.2853 24.7785 26.2368 24.8468C25.9261 25.2837 25.6264 25.7052 25.3773 25.9738C25.1504 26.2152 24.7802 26.2458 24.4696 26.117C24.4358 26.1029 24.397 26.0872 24.3535 26.0697C23.8617 25.871 22.7709 25.4305 21.4504 24.255C20.3368 23.2636 19.5804 22.0292 19.3615 21.6591C19.1466 21.2877 19.3319 21.07 19.5033 20.8688C19.5064 20.865 19.5096 20.8613 19.5128 20.8576C19.6232 20.7209 19.7304 20.6071 19.8381 20.4928C19.9156 20.4105 19.9934 20.3279 20.0728 20.2364C20.0846 20.2228 20.0961 20.2096 20.1073 20.1967C20.276 20.0028 20.3764 19.8872 20.4896 19.6457C20.6184 19.3963 20.5267 19.1388 20.4349 18.9489C20.3718 18.8159 19.9819 17.8699 19.6472 17.0578C19.504 16.7103 19.3709 16.3873 19.2778 16.1631C19.0283 15.566 18.8384 15.5434 18.4602 15.5273C18.4486 15.5268 18.4369 15.5262 18.4251 15.5256C18.3056 15.5195 18.1739 15.5129 18.0289 15.5129C17.5364 15.5129 17.0231 15.6577 16.7124 15.9748C16.7016 15.9858 16.6903 15.9973 16.6785 16.0093C16.2812 16.4134 15.396 17.3137 15.396 19.1082C15.396 20.9062 16.6717 22.6463 16.9078 22.9683C16.9143 22.9771 16.92 22.9849 16.9249 22.9916C16.9391 23.0103 16.9659 23.049 17.0048 23.1055C17.4868 23.8035 19.8344 27.2031 23.335 28.6534C26.2931 29.8797 27.1718 29.7655 27.8445 29.6222Z" fill="#B71923"/>
</svg>
